<?xml version="1.0" encoding="UTF-8"?>
<svg version="1.1" xmlns="http://www.w3.org/2000/svg" width="2000" height="2000">
<path d="M0 0 C660 0 1320 0 2000 0 C2000 660 2000 1320 2000 2000 C1340 2000 680 2000 0 2000 C0 1340 0 680 0 0 Z " fill="#000000" transform="translate(0,0)"/>
<path d="M0 0 C0.83502422 -0.00282738 1.67004845 -0.00565475 2.53037643 -0.00856781 C6.95807944 -0.02339742 11.38575128 -0.03272621 15.81347656 -0.03710938 C19.38682408 -0.041468 22.95992662 -0.05528206 26.53320312 -0.078125 C49.75260269 -0.2234148 72.50557854 0.60922074 95.5859375 3.203125 C97.35808001 3.39031424 99.13035945 3.57621628 100.90283203 3.76025391 C104.88559574 4.18134785 108.86111115 4.64960309 112.8359375 5.140625 C113.50698517 5.22238983 114.17803284 5.30415466 114.86941528 5.38839722 C124.79188528 6.60450349 134.60861673 8.1288173 144.39453125 10.17578125 C148.16261552 10.9571468 151.94176596 11.5915514 155.74081421 12.19789124 C165.90182087 13.82716843 175.89153821 15.9359944 185.8984375 18.328125 C186.71177551 18.52088013 187.52511353 18.71363525 188.36309814 18.91223145 C202.86794125 22.36440318 217.06270581 26.46865138 231.22998047 31.1171875 C234.23677249 32.09014043 237.25310451 33.02509505 240.27520752 33.94915771 C249.86830404 36.89368953 259.29820651 40.22859795 268.7109375 43.703125 C269.5276593 44.00381897 270.3443811 44.30451294 271.18585205 44.61431885 C292.01756607 52.30788692 312.56053009 60.77517475 332.27832031 71.02587891 C335.14326891 72.48745129 338.03183608 73.8972872 340.921875 75.30859375 C356.55342701 82.96831433 371.67035499 91.20707846 386.5859375 100.203125 C388.13505085 101.12431337 389.6845076 102.04492462 391.234375 102.96484375 C424.78752345 123.02289949 456.12359849 146.40870702 485.85498047 171.73095703 C487.65942568 173.26562623 489.46831269 174.79495921 491.27734375 176.32421875 C502.06360974 185.47085854 502.06360974 185.47085854 506.92358398 190.54174805 C508.520917 192.1381427 510.17417466 193.57873241 511.90234375 195.03125 C517.79587207 200.15637988 523.2573639 205.7254495 528.76782227 211.25463867 C530.64423225 213.13640774 532.52592719 215.01277238 534.40820312 216.88867188 C539.82007279 222.29753933 545.19064029 227.69084467 550.15112305 233.52319336 C552.49771288 236.27066395 554.98975648 238.88069603 557.4609375 241.515625 C561.86819961 246.25811816 566.07658141 251.10362155 570.12890625 256.15625 C571.98539296 258.45841158 573.86089374 260.73494841 575.76171875 263 C583.85956097 272.67277238 591.48154452 282.61104108 598.87011719 292.83447266 C600.55958007 295.16673915 602.2623679 297.48868657 603.96875 299.80859375 C611.22611324 309.70897204 618.05565291 319.81029388 624.5859375 330.203125 C625.09624512 331.01120605 625.60655273 331.81928711 626.13232422 332.65185547 C634.31551392 345.63200161 642.14584171 358.78309715 649.5859375 372.203125 C650.45605469 373.77078613 650.45605469 373.77078613 651.34375 375.37011719 C665.4338904 400.88975977 677.79817879 427.11300577 688.5859375 454.203125 C688.92786133 455.06067383 689.26978516 455.91822266 689.62207031 456.80175781 C697.89667493 477.70983862 705.53037874 498.96364695 711.13671875 520.75 C712.11900135 524.55616098 713.21212454 528.31974505 714.34675598 532.08322144 C716.98600646 540.85839592 719.21805727 549.67350443 721.21630859 558.61523438 C721.71269146 560.83597196 722.21700074 563.05479473 722.72265625 565.2734375 C725.55000573 577.73904829 728.29421761 590.22778038 730.0859375 602.890625 C730.33559745 604.61463261 730.58560703 606.33858962 730.8359375 608.0625 C731.0215625 609.34930664 731.0215625 609.34930664 731.2109375 610.66210938 C731.56778287 613.08010846 731.94693816 615.49323849 732.3359375 617.90625 C733.89156653 627.64386022 735.11494493 637.39615055 736.1484375 647.203125 C736.32052734 648.80885376 736.32052734 648.80885376 736.49609375 650.44702148 C736.89421928 654.36295929 737.24835693 658.28161487 737.5859375 662.203125 C737.66958557 663.15629608 737.75323364 664.10946716 737.8394165 665.09152222 C739.40098362 683.30846394 739.91828902 701.42286915 739.84388733 719.70184326 C739.83578123 721.80619299 739.83085116 723.91053189 739.82653809 726.01489258 C739.7767755 747.13640564 739.43241491 768.15171419 737.5859375 789.203125 C737.52041687 789.9717688 737.45489624 790.7404126 737.38739014 791.53234863 C733.23007037 840.28182858 726.31186237 890.1373664 711.87109375 937.00561523 C710.83830076 940.35918481 709.84491079 943.72246574 708.8677063 947.09259033 C695.70201024 992.42729212 678.425691 1036.82399 655.5859375 1078.203125 C655.09351563 1079.11320312 654.60109375 1080.02328125 654.09375 1080.9609375 C653.16510269 1082.67657405 652.23010414 1084.38878667 651.2890625 1086.09765625 C649.91153528 1088.60943181 648.55046567 1091.12850228 647.1953125 1093.65234375 C640.80317217 1105.49643201 633.9477647 1116.93761997 626.5859375 1128.203125 C626.07885254 1128.97962402 625.57176758 1129.75612305 625.04931641 1130.55615234 C618.46224059 1140.60724771 611.69347185 1150.51273243 604.5859375 1160.203125 C604.12751465 1160.82896484 603.6690918 1161.45480469 603.19677734 1162.09960938 C595.63335217 1172.38893905 587.73661542 1182.37368893 579.5859375 1192.203125 C578.86059814 1193.07928467 578.86059814 1193.07928467 578.12060547 1193.97314453 C572.36121597 1200.91027447 566.42967937 1207.6518013 560.2890625 1214.25390625 C558.28576612 1216.41474592 556.35510573 1218.62743328 554.43432617 1220.86181641 C550.56393048 1225.29031066 546.47197748 1229.46150217 542.30859375 1233.61328125 C541.53841415 1234.38441757 540.76823456 1235.15555389 539.97471619 1235.95005798 C538.35652377 1237.56892653 536.73708538 1239.18655051 535.11645508 1240.80297852 C532.65526518 1243.25881218 530.19945941 1245.71993865 527.74414062 1248.18164062 C526.16177883 1249.76334153 524.57910683 1251.34473217 522.99609375 1252.92578125 C521.90978416 1254.01512718 521.90978416 1254.01512718 520.80152893 1255.1264801 C516.22233656 1259.68497952 511.49156078 1263.99947859 506.5859375 1268.203125 C505.3597456 1269.27237023 504.1343568 1270.34253791 502.91015625 1271.4140625 C462.00031199 1307.05273464 417.30779199 1337.44171007 369.5859375 1363.203125 C368.49539063 1363.7923877 367.40484375 1364.38165039 366.28125 1364.98876953 C316.16516021 1391.9021313 261.99601702 1413.45812836 206.8828125 1427.61083984 C204.79831011 1428.1483614 202.72261617 1428.70929311 200.6484375 1429.28515625 C188.70766725 1432.57148666 176.64310778 1435.38123408 164.5859375 1438.203125 C163.69003906 1438.41582031 162.79414062 1438.62851563 161.87109375 1438.84765625 C134.59196877 1445.28337067 106.75793533 1449.60773466 78.9609375 1453.078125 C78.13884796 1453.1814917 77.31675842 1453.2848584 76.46975708 1453.39135742 C74.1003472 1453.68648612 71.73016164 1453.97397246 69.359375 1454.2578125 C68.69202835 1454.33977875 68.0246817 1454.421745 67.33711243 1454.50619507 C55.29209025 1455.9055919 43.19979612 1456.37173695 31.08203125 1456.4765625 C30.42079191 1456.4828001 29.75955257 1456.4890377 29.07827568 1456.49546432 C24.06002634 1456.54116394 19.04186838 1456.5645756 14.0234375 1456.578125 C13.28420296 1456.58042618 12.54496841 1456.58272736 11.78333282 1456.58509827 C-14.15026068 1456.652339 -39.54317064 1455.25443919 -65.23840332 1451.51623535 C-68.39524506 1451.06191795 -71.55737739 1450.64801919 -74.71875 1450.2265625 C-90.83996987 1447.96236005 -106.62289518 1444.0997011 -122.4140625 1440.203125 C-124.13544434 1439.78740234 -124.13544434 1439.78740234 -125.89160156 1439.36328125 C-142.99368602 1435.22512131 -159.61802818 1430.05085348 -176.23144531 1424.29882812 C-178.82500392 1423.40592455 -181.42314258 1422.53654001 -184.03125 1421.6875 C-231.21307549 1406.11291683 -277.12536854 1380.64211325 -315.4140625 1349.203125 C-315.95579102 1348.75904297 -316.49751953 1348.31496094 -317.05566406 1347.85742188 C-331.44111733 1336.00455878 -345.30797654 1323.40070955 -357.4140625 1309.203125 C-358.61289062 1307.85541016 -358.61289062 1307.85541016 -359.8359375 1306.48046875 C-374.42320513 1289.92674073 -386.53818539 1271.66639834 -392.4140625 1250.203125 C-392.713125 1249.15511719 -393.0121875 1248.10710937 -393.3203125 1247.02734375 C-398.27661845 1226.03188103 -396.19529128 1202.1712018 -392.8671875 1181.09082031 C-392.40573616 1178.15006251 -391.98549687 1175.2054293 -391.5703125 1172.2578125 C-389.11681034 1155.3697882 -385.40308061 1138.78450297 -381.4140625 1122.203125 C-381.2349231 1121.45840942 -381.05578369 1120.71369385 -380.87121582 1119.94641113 C-373.18310178 1088.0682495 -373.18310178 1088.0682495 -368.50927734 1073.09228516 C-366.63552298 1067.07108005 -365.03199544 1061.001218 -363.4765625 1054.890625 C-360.7289774 1044.1404613 -357.55302647 1033.55257223 -354.26220703 1022.95800781 C-353.18071862 1019.44519399 -352.1366247 1015.92189112 -351.09375 1012.39746094 C-348.77224485 1004.55627182 -346.29617945 996.79080429 -343.65942383 989.05029297 C-341.76437547 983.41981866 -340.12486815 977.73998361 -338.5390625 972.015625 C-336.16833677 963.48211906 -333.4101635 955.13446526 -330.39306641 946.80786133 C-328.42479192 941.3236568 -326.68835604 935.80207525 -325.078125 930.203125 C-322.32842366 920.67214506 -319.10947844 911.3202176 -315.8515625 901.953125 C-314.72248909 898.69886952 -313.59617414 895.44367765 -312.47265625 892.1875 C-312.20391693 891.40983276 -311.93517761 890.63216553 -311.65829468 889.83093262 C-310.08019278 885.23535511 -308.5994545 880.62245513 -307.19921875 875.96875 C-305.87105011 871.55593649 -304.24593707 867.43456445 -302.4140625 863.203125 C-301.00992181 859.07956329 -299.71290286 854.92337901 -298.4140625 850.765625 C-296.24184685 843.83658373 -294.00236844 836.98751466 -291.4140625 830.203125 C-290.18273953 826.53617572 -288.98659594 822.85905315 -287.79296875 819.1796875 C-286.80075714 816.22074386 -285.67575519 813.33835548 -284.49609375 810.44921875 C-282.25855134 804.92494132 -280.38805703 799.30469167 -278.5390625 793.640625 C-276.11976169 786.3063236 -273.67892967 778.98356571 -271.1015625 771.703125 C-270.87162598 771.0527124 -270.64168945 770.4022998 -270.40478516 769.73217773 C-269.02028255 765.84187756 -267.58166741 761.97392244 -266.1262207 758.10986328 C-265.1070936 755.38124393 -264.13525145 752.63662757 -263.1640625 749.890625 C-261.10606008 744.10210461 -258.98830385 738.33798694 -256.8515625 732.578125 C-254.53208317 726.31875921 -252.31642006 720.04105788 -250.2421875 713.6953125 C-249.29717908 710.85137208 -248.26315836 708.05204825 -247.19140625 705.25390625 C-246.25705698 702.78891446 -245.36824 700.30886201 -244.4765625 697.828125 C-243.25119529 694.44224192 -241.97510875 691.09383321 -240.6015625 687.765625 C-238.68306842 683.02842038 -237.01558215 678.22113799 -235.3515625 673.390625 C-231.97247974 663.59908217 -228.31253493 653.9225787 -224.58569336 644.25854492 C-221.9846648 637.47788967 -219.5108586 630.67001918 -217.1328125 623.80859375 C-213.44594313 613.18393992 -209.53593188 602.64742004 -205.58007812 592.12036133 C-204.41170012 589.00933472 -203.2486371 585.89635574 -202.0859375 582.78320312 C-198.43989428 573.04925397 -194.71542114 563.36730535 -190.70767212 553.77627563 C-188.52797422 548.54272385 -186.58684426 543.26529056 -184.7890625 537.890625 C-182.657632 531.66307403 -180.39354239 525.56499253 -177.78173828 519.51977539 C-176.19104347 515.66229788 -174.76018283 511.76109357 -173.3359375 507.83984375 C-169.07651026 496.20204809 -164.62273358 484.64072834 -160.1640625 473.078125 C-159.2818657 470.78785541 -158.39970498 468.49757192 -157.51757812 466.20727539 C-154.81946743 459.2047093 -152.11757567 452.20360692 -149.4140625 445.203125 C-149.0022876 444.13684875 -148.5905127 443.07057251 -148.16625977 441.97198486 C-132.30983112 400.92218095 -116.38501301 359.89494025 -99.96582031 319.06640625 C-97.15812462 312.08071694 -94.36667426 305.08850953 -91.57171631 298.09771729 C-90.54464863 295.52959281 -89.51682879 292.96177065 -88.48876953 290.39404297 C-85.1926133 282.16019336 -81.90346589 273.92370348 -78.6328125 265.6796875 C-50.77691304 195.51328193 -50.77691304 195.51328193 -20.91015625 181.67578125 C-3.33424966 174.27229881 16.63632609 173.13908438 34.5859375 180.203125 C35.61589844 180.56535156 36.64585937 180.92757812 37.70703125 181.30078125 C53.98905245 187.41950259 67.31343643 200.02367925 75.5859375 215.203125 C75.97837646 215.92081055 76.37081543 216.63849609 76.77514648 217.37792969 C80.01226535 223.53216657 82.09226442 229.62960544 83.8984375 236.328125 C86.30832903 244.92930446 88.9115016 253.42887231 91.7734375 261.890625 C92.11592529 262.90568115 92.45841309 263.9207373 92.8112793 264.96655273 C93.45747679 266.88141702 94.10386755 268.79621609 94.75048828 270.7109375 C96.96625158 277.32067207 98.97358902 283.98320302 100.83984375 290.69921875 C103.93029109 301.78223959 107.36133109 312.69864265 111.04638672 323.59863281 C115.10070056 335.63068035 118.8503415 347.74861494 122.56884766 359.88818359 C123.25243936 362.11617403 123.9396731 364.34304998 124.63037109 366.56884766 C126.7159965 373.29644824 128.69319036 380.04406665 130.5859375 386.828125 C132.84394651 394.84352957 132.84394651 394.84352957 135.5859375 402.703125 C137.49352359 407.68317558 138.90808759 412.75788033 140.3359375 417.890625 C142.525559 425.7461743 144.96076961 433.48251867 147.5859375 441.203125 C150.4053781 449.50164313 152.95741733 457.82434616 155.296875 466.26953125 C157.47255734 474.02478605 160.03236248 481.63019322 162.62280273 489.25512695 C165.10003339 496.60158088 167.28861728 503.99415685 169.36279297 511.46289062 C171.63322748 519.55815338 174.29596965 527.50329225 176.9921875 535.46484375 C178.63155683 540.30921841 180.15685818 545.18272126 181.63671875 550.078125 C182.69626524 553.56634391 183.79808226 557.04006928 184.8984375 560.515625 C186.6941823 566.20854778 188.37994148 571.92772424 190.02636719 577.66552734 C192.99558772 588.00792427 196.21352105 598.22426923 199.67504883 608.41210938 C202.11361818 615.64222252 204.26041338 622.91840612 206.29711914 630.27026367 C208.1823219 636.99045704 210.34109249 643.59517897 212.5859375 650.203125 C215.40513137 658.50172952 217.95741394 666.8243339 220.296875 675.26953125 C222.18224053 681.98994707 224.34100874 688.59493244 226.5859375 695.203125 C229.40513137 703.50172952 231.95741394 711.8243339 234.296875 720.26953125 C236.18224053 726.98994707 238.34100874 733.59493244 240.5859375 740.203125 C243.40513137 748.50172952 245.95741394 756.8243339 248.296875 765.26953125 C250.47255734 773.02478605 253.03236248 780.63019322 255.62280273 788.25512695 C258.10003339 795.60158088 260.28861728 802.99415685 262.36279297 810.46289062 C264.63322748 818.55815338 267.29596965 826.50329225 269.9921875 834.46484375 C271.63115195 839.308022 273.15549635 844.18055994 274.63671875 849.07421875 C275.70111873 852.58279646 276.79886205 856.08046948 277.8984375 859.578125 C279.9796894 866.2120645 282.00616518 872.86198205 284.0234375 879.515625 C286.91267901 889.03971102 289.88265645 898.5357453 292.89501953 908.02148438 C293.98873012 911.47498185 295.06934756 914.93253592 296.1484375 918.390625 C296.35098145 919.0395874 296.55352539 919.6885498 296.76220703 920.35717773 C297.16723498 921.65524847 297.57218326 922.95334407 297.97705078 924.25146484 C298.80318353 926.89946212 299.6305987 929.5470577 300.45825195 932.19458008 C300.87769369 933.53676101 301.29680023 934.87904673 301.71557617 936.22143555 C302.72534989 939.45718537 303.7406675 942.69088316 304.765625 945.921875 C306.94316079 952.81028888 309.03098808 959.71414363 311.02392578 966.65844727 C313.97865942 976.94557268 317.16445654 987.11682448 320.59814453 997.25390625 C323.88367207 1006.98785889 326.85748328 1016.80688007 329.81298828 1026.64501953 C331.68685609 1032.84665784 333.64368601 1039.02264923 335.5859375 1045.203125 C336.42028732 1047.8694743 337.25310071 1050.53630277 338.0859375 1053.203125 C338.50257639 1054.53646701 338.91924301 1055.86980036 339.3359375 1057.203125 C341.8359375 1065.203125 344.3359375 1073.203125 346.8359375 1081.203125 C347.04226807 1081.8633667 347.24859863 1082.5236084 347.46118164 1083.20385742 C347.87707159 1084.53473776 348.29292456 1085.86562965 348.70874023 1087.1965332 C349.9752795 1091.25015338 351.24251586 1095.30355223 352.51293945 1099.35595703 C352.93471842 1100.70636269 353.35385214 1102.05759756 353.77026367 1103.40966797 C354.72306251 1106.4970552 355.71177145 1109.55897362 356.7890625 1112.60546875 C361.0157275 1124.88363293 361.04838464 1136.29735786 355.5859375 1148.203125 C349.05393321 1160.25062572 340.29146352 1166.40643725 327.66015625 1171.34765625 C317.66968279 1174.12772447 306.82492752 1172.68301989 297.5859375 1168.203125 C286.03588348 1161.60531189 280.10033577 1151.94740364 273.671875 1140.67578125 C259.4890243 1116.55639974 241.43403757 1094.07001292 223.11523438 1072.97509766 C221.55672617 1071.16927828 220.01465522 1069.35057222 218.4765625 1067.52734375 C213.38870144 1061.50769885 208.24442781 1055.70597603 202.58984375 1050.203125 C200.695424 1048.31239807 198.94705091 1046.36385137 197.2109375 1044.328125 C190.94920863 1037.04941001 184.03616448 1030.29918597 176.734375 1024.0703125 C174.55404187 1022.1754048 172.43237272 1020.22402637 170.31567383 1018.25854492 C164.26903778 1012.65030674 158.05586681 1007.32135546 151.5859375 1002.203125 C150.93882812 1001.68878906 150.29171875 1001.17445313 149.625 1000.64453125 C132.67174497 987.19991691 115.36435799 974.97648544 96.5859375 964.203125 C95.26867676 963.44467285 95.26867676 963.44467285 93.92480469 962.67089844 C52.46306798 938.96772773 5.51539846 922.42412981 -42.70703125 923.24609375 C-44.98892379 923.26846292 -47.27082542 923.28992037 -49.55273438 923.31054688 C-53.08774046 923.34767981 -56.62226907 923.39097051 -60.15698242 923.44995117 C-63.61123445 923.50468193 -67.06495265 923.53358023 -70.51953125 923.55859375 C-71.56457321 923.58237595 -72.60961517 923.60615814 -73.68632507 923.63066101 C-82.98461413 923.66353605 -90.97997543 921.35323934 -97.8828125 914.90625 C-104.95472731 907.04054883 -106.86710819 899.03215439 -106.6484375 888.6015625 C-105.99650324 879.14851569 -101.22249569 873.61373655 -94.4140625 867.203125 C-70.51296976 849.24109167 -15.94593782 857.37323158 11.5859375 861.203125 C12.55869629 861.3263916 13.53145508 861.4496582 14.53369141 861.57666016 C50.45178049 866.16861849 86.08490117 878.55924383 118.5859375 894.203125 C119.54628906 894.66477051 120.50664063 895.12641602 121.49609375 895.60205078 C134.54110273 901.91421908 147.27533045 908.55425518 159.5859375 916.203125 C160.88144531 917.00387451 160.88144531 917.00387451 162.203125 917.82080078 C174.02554567 925.15393041 185.5251128 932.76106253 196.5859375 941.203125 C189.65617804 922.80209169 182.59618742 904.45923399 175.36529541 886.17401123 C173.06165063 880.34841851 170.76012577 874.52198754 168.4586792 868.69552612 C167.8346797 867.11598031 167.21053395 865.53649228 166.58624268 863.95706177 C162.68482253 854.08584274 158.80146764 844.20778334 154.94140625 834.3203125 C154.54765305 833.31211456 154.15389984 832.30391663 153.74821472 831.26516724 C151.8348647 826.36537374 149.92346709 821.46483396 148.01538086 816.56298828 C144.39724448 807.28392668 140.71588875 798.03679964 136.921875 788.828125 C133.84578894 781.35764194 130.90211457 773.85678346 128.1015625 766.27929688 C126.36910352 761.59646024 124.57274907 756.93873322 122.7734375 752.28125 C122.43874451 751.41478348 122.10405151 750.54831696 121.75921631 749.65559387 C120.70218562 746.92115504 119.64413917 744.18711086 118.5859375 741.453125 C117.8336406 739.5080637 117.08136226 737.56299522 116.32910156 735.61791992 C114.08317661 729.812292 111.83505428 724.00751706 109.5859375 718.203125 C109.25795166 717.35663391 108.92996582 716.51014282 108.59204102 715.63800049 C100.74948741 695.40092513 92.8412985 675.1905074 84.87409973 655.00219727 C77.80522275 637.09007066 70.7854243 619.15953432 63.81521606 601.20883179 C59.60244568 590.36151777 55.35932808 579.52669259 51.0859375 568.703125 C46.90950365 558.12385012 42.75864249 547.5350777 38.63983154 536.93322754 C37.77670063 534.71152431 36.91305714 532.4900209 36.04931641 530.26855469 C33.15571559 522.82483331 30.26651649 515.37943661 27.38404846 507.93139648 C25.93281525 504.18390716 24.47837118 500.43766881 23.02334595 496.69165039 C22.3223594 494.88474696 21.62276447 493.07730295 20.9246521 491.26928711 C19.94813233 488.74062294 18.96676568 486.21388806 17.984375 483.6875 C17.69950729 482.9463092 17.41463959 482.20511841 17.12113953 481.44146729 C15.20761323 476.53965467 12.99623424 471.88151032 10.5859375 467.203125 C10.3499585 467.86094971 10.11397949 468.51877441 9.87084961 469.1965332 C1.9518226 491.26120283 1.9518226 491.26120283 -1.09008789 499.453125 C-1.55983032 500.7215625 -1.55983032 500.7215625 -2.0390625 502.015625 C-2.40783508 503.00972633 -2.40783508 503.00972633 -2.78405762 504.02391052 C-4.7959118 509.46969317 -6.72546892 514.93998728 -8.625 520.42578125 C-12.07130429 530.32138923 -15.69125265 540.14784599 -19.34893799 549.96691895 C-27.26811911 571.23993325 -34.96391688 592.58723127 -42.55810547 613.97802734 C-45.72983349 622.91058492 -48.91538531 631.83821336 -52.1015625 640.765625 C-52.41395874 641.64142212 -52.72635498 642.51721924 -53.04821777 643.41955566 C-57.49379369 655.88022816 -61.9952762 668.31938795 -66.53540039 680.74588013 C-70.19125542 690.7590124 -73.73480756 700.80682701 -77.19506836 710.8894043 C-79.68092317 718.12297729 -82.24423371 725.32501228 -84.8515625 732.515625 C-90.83616308 749.05154077 -96.59387321 765.66756454 -102.12890625 782.359375 C-102.35273483 783.03390213 -102.57656342 783.70842926 -102.80717468 784.40339661 C-103.88176891 787.64446537 -104.95174554 790.88690057 -106.01538086 794.1315918 C-107.99284198 800.1241104 -110.08774228 806.00969561 -112.47998047 811.84838867 C-114.09776681 815.92668173 -115.43061778 820.09529988 -116.7890625 824.265625 C-119.25509681 831.74866189 -121.75084833 839.21975248 -124.30859375 846.671875 C-124.56903473 847.4307048 -124.82947571 848.18953461 -125.09780884 848.97135925 C-125.64774019 850.57331212 -126.19769819 852.17525584 -126.74768066 853.77719116 C-133.20583805 872.5979421 -139.53774479 891.46026124 -145.83282852 910.3360405 C-146.53357232 912.43666704 -147.23489934 914.53709805 -147.93637085 916.63748169 C-149.055883 919.99009672 -150.1736511 923.34328856 -151.29010201 926.69692421 C-151.89807713 928.52229963 -152.50735409 930.34724128 -153.11668396 932.17216492 C-155.3432518 938.87032339 -157.48354895 945.58859883 -159.53944397 952.34115601 C-160.89209077 956.76735218 -162.30953101 961.1722089 -163.7265625 965.578125 C-164.41679801 967.73172874 -165.10688835 969.88537902 -165.796875 972.0390625 C-166.9504476 975.63779869 -168.10405595 979.23652322 -169.25817871 982.83508301 C-171.20710575 988.91222756 -173.15372921 994.9901042 -175.09823608 1001.06866455 C-175.75880866 1003.13233851 -176.42010572 1005.19578073 -177.08218384 1007.25897217 C-180.62093136 1018.28760367 -184.08760129 1029.32578215 -187.31665039 1040.44921875 C-188.90674876 1045.88845178 -190.60029188 1051.29392439 -192.2890625 1056.703125 C-196.24102309 1069.47221623 -199.880757 1082.31280155 -203.4140625 1095.203125 C-203.76952012 1096.49435127 -204.1251583 1097.78552784 -204.48095703 1099.07666016 C-206.7916694 1107.46514083 -209.07981902 1115.85946128 -211.34716797 1124.25976562 C-212.0153338 1126.73396532 -212.68937678 1129.20626706 -213.36767578 1131.67773438 C-217.37111163 1146.27464194 -220.73182667 1160.94603758 -223.7890625 1175.765625 C-224.05228806 1177.03348846 -224.05228806 1177.03348846 -224.3208313 1178.32696533 C-225.28010364 1182.96956956 -226.20294045 1187.61622098 -227.05752563 1192.27929688 C-227.37136524 1193.97273596 -227.70954254 1195.66162627 -228.05151367 1197.34960938 C-228.80070679 1201.78884056 -228.80070679 1201.78884056 -227.52148438 1205.98168945 C-226.13160803 1207.72560578 -224.66381377 1209.12077909 -222.9765625 1210.578125 C-222.38891113 1211.12138428 -221.80125977 1211.66464355 -221.19580078 1212.22436523 C-180.8164912 1248.74769935 -127.08443385 1269.34928471 -74.6640625 1281.140625 C-73.84096588 1281.32635071 -73.01786926 1281.51207642 -72.16983032 1281.70343018 C9.6697053 1300.00062499 95.90399668 1289.86029708 175.39550781 1264.88818359 C177.37938348 1264.26772493 179.36908365 1263.66596607 181.359375 1263.06640625 C231.19121537 1247.92560187 280.24955998 1227.69404472 324.5859375 1200.203125 C325.42930664 1199.68282715 326.27267578 1199.1625293 327.14160156 1198.62646484 C339.25738365 1191.12281774 351.03584692 1183.2761481 362.47314453 1174.7734375 C364.57626672 1173.21031271 366.68788763 1171.65925648 368.80078125 1170.109375 C376.28328856 1164.59143477 383.51475297 1158.86870839 390.5546875 1152.796875 C393.45962301 1150.31120853 396.41638935 1147.90781747 399.3984375 1145.515625 C403.42473149 1142.24207293 407.10678349 1138.79497943 410.71875 1135.07421875 C412.46360167 1133.32571676 414.26108654 1131.73231798 416.1484375 1130.140625 C424.98007908 1122.53560031 433.40643972 1114.04850856 440.92578125 1105.14453125 C443.04296212 1102.66867503 445.25375579 1100.28651232 447.4609375 1097.890625 C452.37812303 1092.48615081 457.04318829 1086.92387225 461.5859375 1081.203125 C462.09108887 1080.57051758 462.59624023 1079.93791016 463.11669922 1079.28613281 C482.68448601 1054.71801055 499.4660951 1028.70898143 514.5859375 1001.203125 C515.05354492 1000.36120605 515.52115234 999.51928711 516.00292969 998.65185547 C528.05585672 976.85853205 538.09714376 953.60808094 546.5859375 930.203125 C546.92399414 929.28563477 547.26205078 928.36814453 547.61035156 927.42285156 C553.59729806 911.08666362 558.37646582 894.62072549 562.66259766 877.77587891 C563.6154762 874.08882851 564.62182488 870.41866978 565.62890625 866.74609375 C567.6224236 859.28886219 569.16439232 851.78775951 570.5859375 844.203125 C570.84481705 842.83128519 571.1037702 841.45945926 571.36279297 840.08764648 C571.87552542 837.36494943 572.38381741 834.64146727 572.88964844 831.91748047 C573.47967279 828.76999431 574.09281393 825.62875362 574.71875 822.48828125 C577.78044235 806.66096332 579.23172629 790.64311772 580.75390625 774.609375 C580.82352066 773.88487656 580.89313507 773.16037811 580.96485901 772.41392517 C582.10093361 760.14688779 582.74291288 747.92950606 582.75390625 735.609375 C582.7571414 734.24776174 582.76050688 732.88614878 582.76399231 731.52453613 C582.76992387 728.68415529 582.77183895 725.84380455 582.77124023 723.00341797 C582.77115984 720.16513577 582.77797294 717.32701797 582.79174805 714.48876953 C582.92643443 686.19775339 581.65825624 658.23584857 577.5234375 630.203125 C577.37553772 629.17726288 577.22763794 628.15140076 577.07525635 627.0944519 C572.39805739 594.89811376 564.81795191 563.17406651 554.4609375 532.328125 C554.22672089 531.62823456 553.99250427 530.92834412 553.75119019 530.20724487 C545.8135758 506.56410129 536.3964448 483.68199847 525.5859375 461.203125 C525.1542627 460.30126465 524.72258789 459.3994043 524.27783203 458.47021484 C517.97424033 445.36829426 510.968185 432.72534856 503.5859375 420.203125 C502.92754883 419.07922363 502.92754883 419.07922363 502.25585938 417.93261719 C486.05839919 390.39693487 467.01759651 364.72242806 446.5859375 340.203125 C446.09706055 339.61515137 445.60818359 339.02717773 445.10449219 338.42138672 C433.63264778 324.68042832 421.2780487 311.81667266 408.6484375 299.140625 C407.7726001 298.26011475 406.8967627 297.37960449 405.99438477 296.47241211 C401.01790892 291.50827189 395.91903909 286.77920213 390.5859375 282.203125 C388.97825377 280.74866983 387.37354035 279.29091605 385.7734375 277.828125 C380.52418333 273.09741417 375.0904183 268.63218024 369.5859375 264.203125 C368.40601591 263.24247495 367.22634026 262.28152276 366.046875 261.3203125 C358.35060504 255.07388932 350.51728992 249.10978188 342.37939453 243.45068359 C340.55705259 242.18303218 338.74146234 240.90607447 336.92578125 239.62890625 C300.04504337 213.83519081 260.31613153 192.07864988 218.5859375 175.203125 C217.70212402 174.8436377 216.81831055 174.48415039 215.90771484 174.11376953 C131.34926284 139.86544202 36.95981679 126.23654948 -128.4140625 146.203125 C-130.55713469 146.66999198 -132.70037014 147.13611004 -134.84375 147.6015625 C-224.66197446 167.40212725 -309.87875192 210.35491508 -380.4140625 269.203125 C-381.00445313 269.69441895 -381.59484375 270.18571289 -382.203125 270.69189453 C-388.54030272 275.97583615 -394.78612469 281.3504593 -400.88500977 286.90942383 C-402.45056132 288.32928645 -404.02347917 289.74112884 -405.60791016 291.13989258 C-412.27799396 297.04309509 -418.60851853 303.24373254 -424.89233398 309.55102539 C-426.60613483 311.2702117 -428.32525332 312.98395083 -430.04492188 314.69726562 C-435.7155093 320.36406584 -441.23503706 326.07751476 -446.4140625 332.203125 C-447.43548587 333.37155545 -448.45891398 334.53823654 -449.484375 335.703125 C-462.56290925 350.6585042 -474.78882177 366.09130487 -486.4140625 382.203125 C-487.20127686 383.28811279 -487.20127686 383.28811279 -488.00439453 384.39501953 C-517.44805543 425.05175344 -541.0822446 469.62410832 -559.4765625 516.265625 C-559.92942627 517.41192383 -560.38229004 518.55822266 -560.84887695 519.73925781 C-563.05869247 525.42152088 -565.05095526 531.0882916 -566.73535156 536.94726562 C-567.36296557 539.03329203 -568.07747045 541.04342484 -568.86328125 543.07421875 C-578.75035731 568.76519807 -584.6325711 596.00297609 -589.79296875 622.96386719 C-590.30250431 625.62130343 -590.82251173 628.27609276 -591.3515625 630.9296875 C-592.08505376 634.68118969 -592.76841638 638.43554369 -593.4140625 642.203125 C-593.52814453 642.86650879 -593.64222656 643.52989258 -593.75976562 644.21337891 C-594.81631961 650.52239186 -595.63437261 656.85459622 -596.4140625 663.203125 C-596.49760986 663.86576355 -596.58115723 664.5284021 -596.66723633 665.21112061 C-607.06539386 747.99190297 -600.42864605 837.03208195 -575.15673828 916.8203125 C-574.35959635 919.37787505 -573.59989386 921.94450946 -572.84765625 924.515625 C-569.58228497 935.76854758 -569.58228497 935.76854758 -565.44921875 946.72265625 C-564.15302131 949.82863879 -563.01049138 952.98081036 -561.8515625 956.140625 C-551.13332982 984.89941278 -538.89219331 1012.9738768 -523.80761719 1039.72167969 C-522.46348316 1042.11512367 -521.14180696 1044.51941936 -519.828125 1046.9296875 C-519.00320233 1048.43782734 -518.17769297 1049.94564643 -517.3515625 1051.453125 C-516.95493408 1052.17733643 -516.55830566 1052.90154785 -516.1496582 1053.64770508 C-514.02587559 1057.47343189 -511.80537662 1061.19556965 -509.41796875 1064.86328125 C-502.90561568 1074.89914022 -497.90423731 1083.58167386 -499.9765625 1096.015625 C-502.63358043 1105.19747178 -508.49069009 1111.18881536 -516.4765625 1116.078125 C-523.12714153 1118.60594689 -532.06602309 1118.28400984 -538.7890625 1116.140625 C-546.39727445 1112.4915762 -551.71555849 1106.00681791 -556.4140625 1099.203125 C-556.95458252 1098.43621338 -557.49510254 1097.66930176 -558.05200195 1096.87915039 C-559.22362346 1095.21315003 -560.3905421 1093.54383443 -561.55322266 1091.87158203 C-563.50476279 1089.07306017 -565.47932248 1086.29179879 -567.45703125 1083.51171875 C-574.89781069 1073.00264904 -581.93851275 1062.422011 -588.26953125 1051.20947266 C-589.82509706 1048.48258703 -591.43825577 1045.7915599 -593.04882812 1043.09692383 C-615.05595108 1006.1656791 -632.54057097 967.47220914 -647.4140625 927.203125 C-647.82317871 926.09598145 -648.23229492 924.98883789 -648.65380859 923.84814453 C-653.66638403 910.15734221 -657.80441891 896.30202531 -661.59375 882.22705078 C-662.38046422 879.32697865 -663.18967012 876.43431227 -664.0078125 873.54296875 C-667.67058683 860.53185057 -670.74577585 847.45320769 -673.4140625 834.203125 C-673.62417969 833.16591309 -673.83429688 832.12870117 -674.05078125 831.06005859 C-680.0643584 801.01495154 -683.16563203 770.82582603 -685.26644897 740.29815674 C-685.40424244 738.34249797 -685.55478295 736.38774896 -685.70629883 734.43310547 C-690.56686003 667.28096187 -682.5056157 600.34934501 -667.08544922 535.07373047 C-666.49240624 532.53809433 -665.91797911 529.99957808 -665.35546875 527.45703125 C-663.34416402 518.44211281 -660.77658346 509.7023965 -657.92578125 500.91796875 C-656.459767 496.39131192 -655.11062272 491.83621398 -653.7890625 487.265625 C-636.55800369 427.98395851 -607.67910041 370.23519499 -573.56201172 318.93017578 C-572.4962571 317.32678399 -571.44103773 315.71640315 -570.38671875 314.10546875 C-556.88683405 293.59337401 -542.06565466 274.11215513 -526.4140625 255.203125 C-525.93195313 254.62046875 -525.44984375 254.0378125 -524.953125 253.4375 C-519.19224317 246.49897935 -513.25917669 239.75592415 -507.1171875 233.15234375 C-505.11816217 230.9962132 -503.19219193 228.78814881 -501.27612305 226.55810547 C-497.33374851 222.04732734 -493.15854402 217.80331981 -488.91796875 213.57421875 C-488.12559311 212.78088638 -487.33321747 211.98755402 -486.51683044 211.17018127 C-484.85155967 209.50423419 -483.18504221 207.83953244 -481.51733398 206.17602539 C-478.98371628 203.64776366 -476.45548083 201.11420839 -473.92773438 198.58007812 C-472.29979967 196.9528043 -470.67155475 195.32584075 -469.04296875 193.69921875 C-468.29688858 192.95111435 -467.55080841 192.20300995 -466.78211975 191.43223572 C-462.15143591 186.82189368 -457.36772834 182.46245359 -452.4140625 178.203125 C-450.80637877 176.74866983 -449.20166535 175.29091605 -447.6015625 173.828125 C-443.33660942 169.98384255 -438.965454 166.30785595 -434.5 162.69921875 C-432.26466433 160.89114344 -430.04218045 159.07199737 -427.828125 157.23828125 C-417.63896829 148.82902547 -407.12887688 140.92859621 -396.4140625 133.203125 C-395.69605469 132.68363281 -394.97804688 132.16414062 -394.23828125 131.62890625 C-376.56192542 118.8717589 -358.21332339 107.22792519 -339.4140625 96.203125 C-338.60453125 95.72552734 -337.795 95.24792969 -336.9609375 94.75585938 C-311.60868618 79.83920832 -285.39404437 66.87772279 -258.4140625 55.203125 C-257.29918457 54.7189209 -256.18430664 54.2347168 -255.03564453 53.73583984 C-228.74320238 42.41674752 -201.34827529 32.69559352 -173.56591797 25.74560547 C-170.37836776 24.94202746 -167.21043306 24.06804424 -164.0390625 23.203125 C-150.08456237 19.50656867 -136.09677774 15.90217996 -121.9765625 12.890625 C-121.23889648 12.73142578 -120.50123047 12.57222656 -119.74121094 12.40820312 C-116.14473438 11.66160946 -112.59726762 11.08721435 -108.94140625 10.72265625 C-105.94149344 10.41828929 -103.07970022 9.95112974 -100.14453125 9.26171875 C-94.38997938 7.91787114 -88.57422805 7.0951191 -82.7265625 6.265625 C-81.51556885 6.09377686 -80.3045752 5.92192871 -79.05688477 5.74487305 C-70.0053501 4.49392344 -60.94227783 3.43744951 -51.8515625 2.515625 C-50.10903198 2.33688843 -50.10903198 2.33688843 -48.33129883 2.15454102 C-32.24718 0.59335911 -16.15345463 0.03815252 0 0 Z " fill="#FEFEFE" transform="translate(973.4140625,271.796875)"/>
</svg>
